<svg width="48" height="48" version="1.1" viewBox="0 0 48 48" xmlns="http://www.w3.org/2000/svg">
  <g transform="translate(-1098.4 127.79)">
    <rect x="1098.4" y="-127.79" width="48" height="48" fill="none" style="paint-order:fill markers stroke"/>
    <g transform="matrix(.30027 0 0 .30027 948.56 -138.25)" fill="#d4d5d1">
      <circle cx="578.49" cy="114.76" r="32.917" style="paint-order:fill markers stroke"/>
      <rect x="572.42" y="34.828" width="13.021" height="25.881" rx="6.5104" ry="6.5104" style="paint-order:fill markers stroke"/>
      <rect x="572.42" y="168.8" width="13.021" height="25.881" rx="6.5104" ry="6.5104" style="paint-order:fill markers stroke"/>
      <rect transform="rotate(90)" x="108.25" y="-658.86" width="13.021" height="25.881" rx="6.5104" ry="6.5104" style="paint-order:fill markers stroke"/>
      <rect transform="rotate(90)" x="108.25" y="-524.88" width="13.021" height="25.881" rx="6.5104" ry="6.5104" style="paint-order:fill markers stroke"/>
      <rect transform="rotate(45)" x="484" y="-408.15" width="13.021" height="25.881" rx="6.5104" ry="6.5104" style="paint-order:fill markers stroke"/>
      <rect transform="rotate(45)" x="484" y="-274.17" width="13.021" height="25.881" rx="6.5104" ry="6.5104" style="paint-order:fill markers stroke"/>
      <rect transform="rotate(135)" x="-334.73" y="-570.44" width="13.021" height="25.881" rx="6.5104" ry="6.5104" style="paint-order:fill markers stroke"/>
      <rect transform="rotate(135)" x="-334.73" y="-436.46" width="13.021" height="25.881" rx="6.5104" ry="6.5104" style="paint-order:fill markers stroke"/>
    </g>
  </g>
</svg>
